<?xml version="1.0" standalone="no"?>
<!DOCTYPE svg PUBLIC "-//W3C//DTD SVG 20010904//EN"
 "http://www.w3.org/TR/2001/REC-SVG-20010904/DTD/svg10.dtd">
<svg version="1.0" xmlns="http://www.w3.org/2000/svg"
 width="1536.000000pt" height="1536.000000pt" viewBox="0 0 1536.000000 1536.000000"
 preserveAspectRatio="xMidYMid meet">
<metadata>
Created by potrace 1.10, written by Peter Selinger 2001-2011
</metadata>
<g transform="translate(0.000000,1536.000000) scale(0.100000,-0.100000)"
fill="#000000" stroke="none">
<path d="M6195 15323 c-249 -4 -733 -45 -940 -79 -285 -47 -429 -75 -530 -105
-38 -11 -83 -24 -100 -28 -16 -5 -41 -13 -55 -19 -14 -6 -83 -32 -155 -57 -71
-25 -146 -52 -165 -60 -74 -28 -196 -77 -211 -85 -9 -5 -61 -27 -115 -50 -351
-149 -833 -413 -1179 -646 -222 -149 -295 -210 -518 -434 -229 -231 -408 -439
-532 -620 -24 -36 -101 -132 -170 -215 -265 -317 -434 -589 -624 -1005 -24
-52 -54 -118 -67 -146 -45 -98 -135 -378 -167 -519 -68 -300 -95 -473 -146
-925 -5 -47 -18 -208 -27 -359 -17 -261 -17 -287 -1 -575 17 -289 28 -396 62
-609 17 -109 70 -380 84 -436 5 -20 17 -67 26 -106 10 -38 24 -90 31 -115 8
-25 35 -112 60 -195 55 -182 71 -228 182 -535 16 -47 50 -141 75 -210 45 -128
108 -291 132 -345 7 -16 23 -55 35 -85 71 -175 301 -605 436 -813 172 -263
427 -572 744 -901 47 -48 90 -93 95 -100 26 -29 189 -202 280 -296 90 -94 246
-276 331 -385 37 -49 85 -129 153 -259 29 -54 61 -114 72 -133 11 -19 64 -123
119 -231 191 -380 333 -586 575 -827 122 -123 175 -171 336 -309 56 -48 260
-192 341 -241 131 -79 320 -179 408 -218 67 -29 156 -56 320 -95 337 -81 279
-76 850 -76 570 1 614 4 955 70 261 50 429 94 610 159 55 19 120 43 145 51 42
15 172 68 285 117 28 12 122 57 210 101 311 153 576 325 870 562 77 62 194
156 260 209 412 333 562 465 820 721 414 411 543 568 920 1119 44 65 182 291
198 325 4 8 23 42 42 75 73 124 585 1166 585 1190 0 2 20 47 45 99 25 53 45
100 45 105 0 5 13 37 29 72 16 35 43 102 61 149 17 47 38 99 45 115 18 42 101
289 118 355 9 30 23 93 32 140 24 131 45 216 75 320 83 286 94 329 129 508 58
293 95 591 127 997 19 242 15 939 -5 1105 -19 157 -42 298 -68 420 -13 63 -26
129 -30 145 -18 96 -99 374 -155 535 -152 440 -395 891 -681 1265 -21 27 -71
93 -110 145 -95 127 -190 243 -253 310 -51 55 -72 78 -193 224 -106 128 -242
245 -586 502 -331 247 -403 292 -760 468 -265 131 -472 217 -720 301 -38 13
-95 34 -125 45 -30 12 -68 26 -85 30 -16 5 -68 22 -115 38 -87 31 -431 132
-530 157 -365 90 -730 143 -1210 175 -154 11 -815 31 -870 27 -14 -1 -83 -2
-155 -4z m-1253 -864 c135 -12 218 -32 453 -108 88 -28 170 -51 182 -51 12 0
25 -5 29 -12 10 -16 -20 -34 -69 -42 -23 -4 -69 -15 -102 -25 -52 -17 -101
-36 -297 -118 -40 -17 -49 -37 -20 -46 9 -3 42 -15 72 -27 155 -59 330 -75
510 -46 47 8 132 17 190 21 211 13 295 29 435 83 236 91 434 159 530 181 22 5
76 19 120 31 426 118 559 140 910 147 222 4 289 3 375 -11 58 -9 161 -21 230
-26 138 -11 134 -10 275 -52 599 -178 1177 -450 1471 -693 34 -27 107 -86 162
-129 56 -43 128 -106 159 -140 80 -85 187 -206 233 -265 21 -27 74 -86 117
-132 204 -217 235 -256 435 -554 74 -110 154 -229 179 -265 25 -36 48 -72 52
-80 4 -8 11 -22 16 -30 73 -114 260 -439 334 -579 27 -53 60 -112 72 -131 23
-38 37 -66 113 -235 122 -271 176 -421 226 -630 10 -38 30 -113 46 -165 33
-110 53 -291 71 -642 12 -246 3 -530 -27 -788 -26 -232 -31 -246 -126 -358
-132 -154 -179 -195 -321 -280 -223 -133 -259 -148 -425 -182 -90 -19 -128
-21 -290 -17 -200 4 -301 19 -437 63 -96 31 -336 147 -420 203 -71 47 -210
187 -284 286 -139 186 -168 215 -214 215 -33 0 -67 -43 -67 -84 0 -34 25 -123
39 -140 5 -6 12 -38 15 -71 4 -33 12 -94 18 -135 7 -41 12 -138 12 -215 0
-147 -18 -252 -65 -375 -11 -30 -24 -66 -29 -80 -5 -14 -18 -50 -30 -80 -12
-30 -25 -66 -29 -80 -5 -14 -20 -46 -35 -72 -29 -53 -31 -58 -15 -58 49 0 201
257 296 500 25 63 83 271 83 296 0 34 27 42 53 16 20 -21 21 -25 9 -124 -13
-115 -56 -295 -97 -408 -29 -82 -161 -355 -209 -435 -128 -213 -386 -478 -578
-594 -115 -69 -328 -150 -449 -170 -167 -28 -318 -2 -509 88 -57 27 -73 37
-140 88 -152 114 -281 322 -346 561 -26 98 -40 86 -87 -78 -21 -71 -22 -92
-20 -410 2 -341 6 -382 52 -600 15 -67 13 -175 -5 -281 -35 -210 -103 -330
-233 -409 -53 -33 -56 -34 -226 -42 -148 -8 -177 -7 -210 6 -35 15 -37 18 -31
48 23 128 18 221 -21 388 -36 158 -43 190 -63 267 -43 171 -128 395 -193 514
-67 122 -86 157 -103 187 -11 18 -26 31 -34 30 -12 -3 -14 -41 -12 -263 3
-250 16 -411 54 -638 6 -39 12 -148 12 -242 1 -180 -10 -240 -63 -342 -88
-171 -325 -198 -597 -67 -50 24 -96 49 -102 56 -6 7 -15 113 -21 243 -21 430
-46 585 -148 915 -58 188 -64 203 -78 201 -40 -5 -93 -478 -101 -896 -6 -322
-31 -580 -65 -670 -35 -93 -93 -134 -220 -156 -63 -10 -93 -10 -165 1 -78 11
-106 22 -234 87 -80 41 -149 79 -154 83 -4 4 -9 57 -10 117 -1 86 -11 153 -49
333 -74 353 -88 402 -187 680 -29 80 -56 160 -60 178 -10 41 -15 46 -34 39
-22 -9 -31 -130 -30 -417 0 -177 5 -290 16 -370 37 -262 42 -339 28 -479 -15
-157 -34 -204 -95 -238 -45 -25 -104 -29 -187 -12 -72 15 -171 45 -205 63 -43
22 -120 93 -153 141 -30 43 -30 45 -30 187 -1 189 -32 416 -84 598 -33 120
-98 297 -135 370 -10 19 -21 48 -25 65 -7 29 -21 45 -40 45 -5 0 -5 -24 -2
-52 29 -214 38 -351 43 -633 7 -419 -9 -516 -99 -602 -40 -39 -76 -53 -131
-53 -51 0 -181 31 -224 53 -81 42 -171 193 -203 342 -28 130 -35 326 -17 452
14 90 14 110 0 175 -19 93 -65 175 -146 260 -53 55 -190 158 -211 158 -12 0
-328 193 -401 245 -44 31 -141 117 -215 190 -74 73 -141 131 -147 128 -40 -15
28 -217 109 -323 73 -96 206 -204 369 -301 110 -64 162 -102 222 -158 43 -40
51 -77 15 -67 -13 4 -43 11 -68 16 -91 19 -147 42 -240 97 -224 134 -336 228
-454 382 -137 181 -206 305 -290 522 -31 79 -62 158 -70 174 -13 31 -141 420
-197 602 -38 125 -33 161 12 76 43 -82 73 -118 132 -161 117 -83 185 -100 313
-78 105 19 144 38 311 152 165 113 200 124 326 105 109 -16 166 -44 262 -127
44 -38 103 -85 130 -105 212 -154 415 -186 600 -95 89 44 155 109 197 194 30
61 33 75 33 157 -1 59 -6 106 -17 135 -9 25 -28 83 -42 130 -76 253 -337 550
-595 676 -244 119 -527 170 -803 145 -246 -22 -375 -65 -542 -181 -170 -117
-285 -275 -341 -465 -25 -85 -27 -99 -22 -245 3 -97 2 -139 -3 -113 -5 23 -13
51 -19 61 -6 11 -20 68 -31 128 -12 60 -27 141 -35 179 -79 406 -100 646 -100
1140 0 380 3 435 41 785 45 420 115 738 229 1035 12 33 37 98 54 145 68 180
206 476 295 630 14 25 30 54 35 65 5 11 29 50 53 87 24 37 75 117 113 179 90
143 175 255 360 475 190 228 343 379 555 550 202 162 648 389 920 468 30 8
130 40 221 70 257 84 499 143 684 165 104 13 350 13 487 0z m5765 -6510 c112
-49 178 -315 204 -819 12 -236 9 -326 -17 -487 -18 -119 -16 -258 5 -258 19 0
77 106 101 185 10 36 28 110 39 165 12 55 35 170 53 255 30 144 32 171 34 370
3 252 1 233 15 225 22 -14 50 -118 74 -275 11 -73 12 -116 5 -171 -5 -41 -9
-105 -10 -144 0 -171 -46 -552 -96 -800 -23 -114 -28 -175 -15 -175 7 0 14 8
17 18 3 9 12 31 19 47 33 77 119 413 149 580 46 263 92 597 106 775 8 96 25
153 44 147 18 -6 35 -132 47 -357 13 -258 6 -403 -26 -558 -29 -136 -31 -162
-10 -162 20 0 29 23 80 210 9 36 23 85 30 110 6 25 20 74 30 110 9 36 23 86
31 111 19 65 41 213 53 359 6 69 18 150 26 180 9 30 19 67 22 82 6 31 37 63
52 54 5 -4 7 -21 5 -39 -3 -17 -11 -95 -19 -172 -8 -77 -22 -196 -30 -265 -17
-135 -17 -231 2 -237 23 -8 110 202 153 372 15 61 40 142 54 180 103 265 128
292 141 148 4 -48 0 -129 -9 -211 -15 -139 -26 -172 -142 -449 -19 -45 -34
-84 -34 -88 0 -16 -171 -375 -342 -720 -345 -693 -400 -800 -457 -897 -139
-233 -158 -258 -429 -563 -326 -366 -333 -374 -411 -464 -156 -181 -209 -240
-336 -366 -126 -126 -254 -245 -312 -289 -16 -11 -40 -31 -53 -43 -220 -192
-586 -479 -787 -616 -442 -301 -1015 -575 -1453 -692 -36 -10 -85 -23 -110
-30 -25 -7 -79 -21 -120 -30 -41 -9 -93 -20 -115 -25 -152 -34 -523 -70 -715
-70 -124 0 -324 19 -460 44 -317 57 -422 86 -615 166 -55 23 -113 46 -129 50
-68 22 -220 107 -333 188 -360 258 -685 587 -904 917 -66 100 -249 400 -249
410 0 2 -20 39 -45 81 -25 41 -45 78 -45 81 0 3 -22 42 -49 87 -27 44 -64 109
-82 144 -41 76 -44 81 -92 155 -40 62 -66 123 -74 174 -5 30 -4 31 54 48 147
43 313 46 389 6 41 -22 182 -160 240 -236 17 -22 39 -60 49 -85 56 -135 152
-321 195 -380 59 -80 142 -160 166 -160 34 0 2 255 -62 502 l-38 147 24 26
c16 17 64 38 154 68 119 38 141 42 231 42 93 0 105 -2 167 -33 38 -19 80 -48
95 -67 51 -64 193 -332 237 -447 63 -167 168 -332 275 -431 68 -63 84 -60 92
18 22 197 6 358 -55 568 -35 119 -34 150 12 249 42 91 89 146 139 167 70 28
196 -42 300 -169 106 -128 167 -243 259 -488 78 -210 211 -456 243 -450 31 6
44 87 44 278 l1 185 -47 190 c-26 105 -53 213 -62 241 -9 31 -15 90 -15 151 0
83 3 103 18 116 44 40 292 38 416 -3 85 -28 134 -69 222 -184 71 -93 93 -141
184 -401 17 -49 37 -106 44 -125 17 -43 41 -108 60 -157 8 -21 17 -55 20 -77
6 -47 9 -50 35 -37 30 17 67 86 90 171 38 136 27 274 -48 596 -44 189 -70 251
-147 352 -18 24 -30 50 -28 57 8 20 94 73 156 97 157 59 269 -8 388 -232 73
-138 103 -234 130 -423 20 -139 26 -163 78 -337 26 -86 71 -150 105 -150 20 0
66 48 72 74 12 61 11 184 -2 221 -41 115 -55 296 -29 390 49 184 166 283 324
273 95 -6 168 -44 262 -138 103 -103 145 -188 160 -325 32 -277 108 -392 299
-449 30 -9 71 -16 92 -16 112 0 316 116 450 256 53 56 118 142 132 174 4 8 12
23 19 32 8 11 9 21 3 27 -7 7 -22 -1 -45 -21 -108 -95 -409 -256 -495 -265
-59 -6 -108 2 -103 18 2 6 28 20 58 33 115 46 228 134 304 236 61 82 80 120
67 133 -11 11 -8 13 -276 -119 -171 -85 -268 -110 -293 -77 -7 10 -12 29 -10
43 3 21 22 34 123 85 274 137 410 231 604 420 220 215 316 332 470 575 41 63
81 126 89 140 48 74 149 274 175 345 75 205 111 305 117 330 4 17 17 64 28
105 68 247 93 468 93 810 1 277 -10 384 -52 553 -22 89 -66 212 -87 244 -8 13
-12 29 -9 37 5 12 17 10 74 -11 37 -14 87 -33 110 -44z"/>
<path d="M7980 12320 c-101 -11 -177 -32 -263 -74 -72 -36 -167 -112 -167
-136 0 -14 46 -6 69 13 40 33 251 73 441 82 69 4 135 11 148 17 29 15 28 48
-1 76 -27 26 -115 34 -227 22z"/>
<path d="M8130 12050 c-173 -16 -348 -56 -447 -100 -181 -82 -492 -328 -600
-474 -65 -88 -57 -124 15 -67 20 16 111 67 202 113 91 47 183 95 205 108 251
143 401 191 690 220 103 10 135 10 230 -4 61 -10 128 -22 150 -27 22 -6 67
-17 100 -26 112 -28 176 -56 257 -110 134 -90 161 -99 191 -65 26 29 21 83
-12 129 -89 123 -233 196 -528 268 -158 39 -301 50 -453 35z"/>
<path d="M10629 11821 c-20 -20 -29 -39 -29 -61 0 -39 47 -90 84 -90 64 0 116
62 96 114 -27 71 -99 89 -151 37z"/>
<path d="M2147 11049 c-64 -9 -150 -26 -228 -47 -53 -14 -179 -79 -218 -112
-29 -25 -32 -30 -17 -36 9 -4 29 -1 44 6 39 18 376 50 528 50 146 0 168 7 162
54 -2 19 -16 40 -40 59 -30 24 -47 30 -100 32 -35 2 -93 -1 -131 -6z"/>
<path d="M7859 10974 c-186 -25 -365 -68 -504 -122 -282 -108 -535 -269 -761
-484 -508 -486 -720 -1048 -539 -1433 38 -80 149 -191 233 -233 180 -89 357
-63 544 79 127 96 310 273 497 478 140 154 250 227 476 314 176 68 232 81 335
80 98 -2 142 -11 495 -103 141 -38 176 -43 301 -47 136 -5 144 -4 225 24 243
84 359 255 346 508 -4 84 -10 114 -37 179 -105 251 -415 516 -773 660 -246 99
-567 138 -838 100z"/>
<path d="M2085 10795 c-38 -8 -97 -23 -130 -35 -33 -12 -69 -24 -80 -27 -80
-24 -297 -163 -350 -225 -88 -100 -177 -201 -216 -243 -101 -109 -135 -155
-179 -244 -45 -90 -39 -158 10 -106 13 14 60 49 104 80 45 30 133 98 196 151
193 161 368 249 638 321 56 15 110 18 337 18 l270 0 153 -57 c165 -63 201 -69
232 -38 42 42 17 108 -73 194 -93 88 -206 151 -327 183 -154 41 -442 55 -585
28z"/>
<path d="M4362 8641 c-62 -62 -78 -113 -91 -294 -13 -167 -26 -202 -130 -341
-86 -116 -161 -225 -161 -233 0 -4 -7 -14 -15 -23 -22 -25 -101 -190 -115
-242 -39 -146 35 -292 168 -333 159 -50 347 62 455 272 26 50 47 98 47 107 0
8 11 27 23 42 l24 27 6 -154 c8 -172 26 -245 80 -327 122 -181 364 -161 464
39 91 180 81 429 -30 789 -24 78 -59 153 -106 225 -55 85 -195 232 -266 280
-31 20 -64 53 -78 77 -34 59 -83 102 -137 121 -69 25 -84 22 -138 -32z"/>
<path d="M11623 8655 c-31 -22 -30 -65 2 -95 34 -32 101 -32 127 0 24 29 23
34 -9 70 -34 38 -88 49 -120 25z"/>
<path d="M11205 8595 c-29 -28 -31 -45 -9 -91 22 -46 125 -139 170 -154 77
-26 72 35 -13 181 -51 89 -102 111 -148 64z"/>
<path d="M10989 8574 c-37 -40 -31 -91 24 -204 62 -124 80 -149 104 -134 20
13 21 40 8 199 -8 95 -23 138 -54 155 -32 16 -56 12 -82 -16z"/>
<path d="M10789 8531 c-23 -24 -29 -38 -29 -74 0 -85 87 -215 138 -205 14 3
17 16 19 73 4 120 -6 185 -33 212 -31 31 -59 29 -95 -6z"/>
<path d="M9369 7127 c-65 -49 -111 -113 -107 -151 3 -30 5 -31 46 -30 73 1
192 101 192 161 0 27 -31 53 -63 53 -14 0 -45 -15 -68 -33z"/>
<path d="M6695 2996 c-71 -32 -103 -111 -71 -175 18 -34 50 -51 98 -51 43 0
92 52 112 119 14 47 14 55 1 75 -29 44 -85 56 -140 32z"/>
<path d="M5955 2578 c-51 -29 -59 -80 -19 -127 22 -26 33 -31 69 -31 100 0
117 108 25 155 -34 18 -48 18 -75 3z"/>
</g>
</svg>
